<mxfile host="Electron" modified="2024-09-27T20:37:12.338Z" agent="Mozilla/5.0 (Windows NT 10.0; Win64; x64) AppleWebKit/537.36 (KHTML, like Gecko) draw.io/22.1.16 Chrome/120.0.6099.109 Electron/28.1.0 Safari/537.36" etag="tQX0SH_HKKWlYtKAhI0A" version="22.1.16" type="device">
  <diagram name="Page-1" id="AzJHo57NSov567J8vjZq">
    <mxGraphModel dx="439" dy="116" grid="1" gridSize="10" guides="1" tooltips="1" connect="1" arrows="1" fold="1" page="1" pageScale="1" pageWidth="500" pageHeight="130" math="0" shadow="0">
      <root>
        <mxCell id="0" />
        <mxCell id="1" parent="0" />
        <mxCell id="K0lndk3c3T9sGNKvP9zY-1" value="" style="ellipse;whiteSpace=wrap;html=1;aspect=fixed;" vertex="1" parent="1">
          <mxGeometry x="230" y="343" width="20" height="20" as="geometry" />
        </mxCell>
        <mxCell id="K0lndk3c3T9sGNKvP9zY-2" value="" style="ellipse;whiteSpace=wrap;html=1;aspect=fixed;" vertex="1" parent="1">
          <mxGeometry x="230" y="298" width="20" height="20" as="geometry" />
        </mxCell>
        <mxCell id="K0lndk3c3T9sGNKvP9zY-3" value="" style="ellipse;whiteSpace=wrap;html=1;aspect=fixed;" vertex="1" parent="1">
          <mxGeometry x="280" y="318" width="20" height="20" as="geometry" />
        </mxCell>
        <mxCell id="K0lndk3c3T9sGNKvP9zY-4" value="" style="ellipse;whiteSpace=wrap;html=1;aspect=fixed;" vertex="1" parent="1">
          <mxGeometry x="320" y="308" width="20" height="20" as="geometry" />
        </mxCell>
        <mxCell id="K0lndk3c3T9sGNKvP9zY-5" value="" style="ellipse;whiteSpace=wrap;html=1;aspect=fixed;" vertex="1" parent="1">
          <mxGeometry x="370" y="288" width="20" height="20" as="geometry" />
        </mxCell>
        <mxCell id="K0lndk3c3T9sGNKvP9zY-6" value="" style="ellipse;whiteSpace=wrap;html=1;aspect=fixed;" vertex="1" parent="1">
          <mxGeometry x="320" y="353" width="20" height="20" as="geometry" />
        </mxCell>
        <mxCell id="K0lndk3c3T9sGNKvP9zY-7" value="" style="ellipse;whiteSpace=wrap;html=1;aspect=fixed;" vertex="1" parent="1">
          <mxGeometry x="180" y="318" width="20" height="20" as="geometry" />
        </mxCell>
        <mxCell id="K0lndk3c3T9sGNKvP9zY-8" value="" style="ellipse;whiteSpace=wrap;html=1;aspect=fixed;" vertex="1" parent="1">
          <mxGeometry x="150" y="278" width="20" height="20" as="geometry" />
        </mxCell>
        <mxCell id="K0lndk3c3T9sGNKvP9zY-9" value="" style="ellipse;whiteSpace=wrap;html=1;aspect=fixed;" vertex="1" parent="1">
          <mxGeometry x="130" y="318" width="20" height="20" as="geometry" />
        </mxCell>
        <mxCell id="K0lndk3c3T9sGNKvP9zY-10" value="" style="endArrow=none;html=1;rounded=0;endFill=0;startArrow=none;startFill=0;" edge="1" parent="1" source="K0lndk3c3T9sGNKvP9zY-7" target="K0lndk3c3T9sGNKvP9zY-2">
          <mxGeometry width="50" height="50" relative="1" as="geometry">
            <mxPoint x="230" y="398" as="sourcePoint" />
            <mxPoint x="280" y="348" as="targetPoint" />
          </mxGeometry>
        </mxCell>
        <mxCell id="K0lndk3c3T9sGNKvP9zY-40" value="4" style="edgeLabel;html=1;align=center;verticalAlign=middle;resizable=0;points=[];" vertex="1" connectable="0" parent="K0lndk3c3T9sGNKvP9zY-10">
          <mxGeometry x="-0.0439" relative="1" as="geometry">
            <mxPoint x="-4" y="-10" as="offset" />
          </mxGeometry>
        </mxCell>
        <mxCell id="K0lndk3c3T9sGNKvP9zY-11" value="" style="endArrow=none;html=1;rounded=0;endFill=0;startArrow=none;startFill=0;" edge="1" parent="1" source="K0lndk3c3T9sGNKvP9zY-7" target="K0lndk3c3T9sGNKvP9zY-8">
          <mxGeometry width="50" height="50" relative="1" as="geometry">
            <mxPoint x="230" y="398" as="sourcePoint" />
            <mxPoint x="280" y="348" as="targetPoint" />
          </mxGeometry>
        </mxCell>
        <mxCell id="K0lndk3c3T9sGNKvP9zY-39" value="6" style="edgeLabel;html=1;align=center;verticalAlign=middle;resizable=0;points=[];" vertex="1" connectable="0" parent="K0lndk3c3T9sGNKvP9zY-11">
          <mxGeometry x="-0.1813" y="-1" relative="1" as="geometry">
            <mxPoint x="3" y="-11" as="offset" />
          </mxGeometry>
        </mxCell>
        <mxCell id="K0lndk3c3T9sGNKvP9zY-13" value="" style="endArrow=none;html=1;rounded=0;endFill=0;startArrow=none;startFill=0;" edge="1" parent="1" source="K0lndk3c3T9sGNKvP9zY-9" target="K0lndk3c3T9sGNKvP9zY-7">
          <mxGeometry width="50" height="50" relative="1" as="geometry">
            <mxPoint x="230" y="398" as="sourcePoint" />
            <mxPoint x="280" y="348" as="targetPoint" />
          </mxGeometry>
        </mxCell>
        <mxCell id="K0lndk3c3T9sGNKvP9zY-38" value="12" style="edgeLabel;html=1;align=center;verticalAlign=middle;resizable=0;points=[];" vertex="1" connectable="0" parent="K0lndk3c3T9sGNKvP9zY-13">
          <mxGeometry y="2" relative="1" as="geometry">
            <mxPoint y="12" as="offset" />
          </mxGeometry>
        </mxCell>
        <mxCell id="K0lndk3c3T9sGNKvP9zY-14" value="" style="endArrow=none;html=1;rounded=0;endFill=0;startArrow=none;startFill=0;" edge="1" parent="1" source="K0lndk3c3T9sGNKvP9zY-1" target="K0lndk3c3T9sGNKvP9zY-7">
          <mxGeometry width="50" height="50" relative="1" as="geometry">
            <mxPoint x="230" y="398" as="sourcePoint" />
            <mxPoint x="280" y="348" as="targetPoint" />
          </mxGeometry>
        </mxCell>
        <mxCell id="K0lndk3c3T9sGNKvP9zY-41" value="7" style="edgeLabel;html=1;align=center;verticalAlign=middle;resizable=0;points=[];" vertex="1" connectable="0" parent="K0lndk3c3T9sGNKvP9zY-14">
          <mxGeometry x="-0.0274" y="-1" relative="1" as="geometry">
            <mxPoint y="13" as="offset" />
          </mxGeometry>
        </mxCell>
        <mxCell id="K0lndk3c3T9sGNKvP9zY-15" value="" style="endArrow=none;html=1;rounded=0;endFill=0;startArrow=none;startFill=0;" edge="1" parent="1" source="K0lndk3c3T9sGNKvP9zY-3" target="K0lndk3c3T9sGNKvP9zY-1">
          <mxGeometry width="50" height="50" relative="1" as="geometry">
            <mxPoint x="230" y="398" as="sourcePoint" />
            <mxPoint x="280" y="348" as="targetPoint" />
          </mxGeometry>
        </mxCell>
        <mxCell id="K0lndk3c3T9sGNKvP9zY-42" value="8" style="edgeLabel;html=1;align=center;verticalAlign=middle;resizable=0;points=[];" vertex="1" connectable="0" parent="K0lndk3c3T9sGNKvP9zY-15">
          <mxGeometry x="-0.122" y="2" relative="1" as="geometry">
            <mxPoint x="2" y="12" as="offset" />
          </mxGeometry>
        </mxCell>
        <mxCell id="K0lndk3c3T9sGNKvP9zY-16" value="" style="endArrow=none;html=1;rounded=0;endFill=0;startArrow=none;startFill=0;" edge="1" parent="1" source="K0lndk3c3T9sGNKvP9zY-3" target="K0lndk3c3T9sGNKvP9zY-4">
          <mxGeometry width="50" height="50" relative="1" as="geometry">
            <mxPoint x="230" y="398" as="sourcePoint" />
            <mxPoint x="280" y="348" as="targetPoint" />
          </mxGeometry>
        </mxCell>
        <mxCell id="K0lndk3c3T9sGNKvP9zY-44" value="2" style="edgeLabel;html=1;align=center;verticalAlign=middle;resizable=0;points=[];" vertex="1" connectable="0" parent="K0lndk3c3T9sGNKvP9zY-16">
          <mxGeometry x="-0.2333" y="-1" relative="1" as="geometry">
            <mxPoint y="-17" as="offset" />
          </mxGeometry>
        </mxCell>
        <mxCell id="K0lndk3c3T9sGNKvP9zY-17" value="" style="endArrow=none;html=1;rounded=0;endFill=0;startArrow=none;startFill=0;" edge="1" parent="1" source="K0lndk3c3T9sGNKvP9zY-6" target="K0lndk3c3T9sGNKvP9zY-3">
          <mxGeometry width="50" height="50" relative="1" as="geometry">
            <mxPoint x="230" y="398" as="sourcePoint" />
            <mxPoint x="280" y="348" as="targetPoint" />
          </mxGeometry>
        </mxCell>
        <mxCell id="K0lndk3c3T9sGNKvP9zY-43" value="42" style="edgeLabel;html=1;align=center;verticalAlign=middle;resizable=0;points=[];" vertex="1" connectable="0" parent="K0lndk3c3T9sGNKvP9zY-17">
          <mxGeometry x="0.1277" y="1" relative="1" as="geometry">
            <mxPoint x="-8" y="8" as="offset" />
          </mxGeometry>
        </mxCell>
        <mxCell id="K0lndk3c3T9sGNKvP9zY-18" value="" style="endArrow=none;html=1;rounded=0;endFill=0;startArrow=none;startFill=0;" edge="1" parent="1" source="K0lndk3c3T9sGNKvP9zY-4" target="K0lndk3c3T9sGNKvP9zY-5">
          <mxGeometry width="50" height="50" relative="1" as="geometry">
            <mxPoint x="290" y="293" as="sourcePoint" />
            <mxPoint x="280" y="348" as="targetPoint" />
          </mxGeometry>
        </mxCell>
        <mxCell id="K0lndk3c3T9sGNKvP9zY-45" value="23" style="edgeLabel;html=1;align=center;verticalAlign=middle;resizable=0;points=[];" vertex="1" connectable="0" parent="K0lndk3c3T9sGNKvP9zY-18">
          <mxGeometry x="0.0553" y="1" relative="1" as="geometry">
            <mxPoint x="4" y="11" as="offset" />
          </mxGeometry>
        </mxCell>
      </root>
    </mxGraphModel>
  </diagram>
</mxfile>
